<svg xmlns="http://www.w3.org/2000/svg" viewBox="0 0 800 600" aria-labelledby="title desc">
  <title id="title">AI-Driven Niche Historical Fashion Recreator</title>
  <desc id="desc">An illustration representing AI transforming historical fashion concepts into recreations.</desc>

  <style>
    .background { fill: #f0f4f8; }
    .primary-accent { fill: #4a90e2; }
    .secondary-accent { fill: #8cd0f5; }
    .icon-color { fill: #333333; }
    .text-color { fill: #333333; }
    .outline { stroke: #ffffff; stroke-width: 2; }
    .pattern-element { fill: rgba(74, 144, 226, 0.1); }
  </style>

  <!-- Background -->
  <rect class="background" width="800" height="600"/>

  <!-- AI Element (Abstract Neural Network / Brain) -->
  <g transform="translate(150, 250)">
    <circle cx="0" cy="0" r="50" class="primary-accent"/>
    <circle cx="50" cy="50" r="20" class="secondary-accent"/>
    <circle cx="-50" cy="50" r="20" class="secondary-accent"/>
    <circle cx="0" cy="-50" r="20" class="secondary-accent"/>
    <circle cx="30" cy="-30" r="15" class="secondary-accent"/>
    <circle cx="-30" cy="-30" r="15" class="secondary-accent"/>
    <circle cx="-30" cy="30" r="15" class="secondary-accent"/>
    <circle cx="30" cy="30" r="15" class="secondary-accent"/>

    <!-- Connecting lines -->
    <line x1="0" y1="0" x2="50" y2="50" stroke="#8cd0f5" stroke-width="4" stroke-dasharray="6 3"/>
    <line x1="0" y1="0" x2="-50" y2="50" stroke="#8cd0f5" stroke-width="4" stroke-dasharray="6 3"/>
    <line x1="0" y1="0" x2="0" y2="-50" stroke="#8cd0f5" stroke-width="4" stroke-dasharray="6 3"/>
    <line x1="0" y1="0" x2="30" y2="-30" stroke="#8cd0f5" stroke-width="4" stroke-dasharray="6 3"/>
    <line x1="0" y1="0" x2="-30" y2="-30" stroke="#8cd0f5" stroke-width="4" stroke-dasharray="6 3"/>
    <line x1="0" y1="0" x2="-30" y2="30" stroke="#8cd0f5" stroke-width="4" stroke-dasharray="6 3"/>
    <line x1="0" y1="0" x2="30" y2="30" stroke="#8cd0f5" stroke-width="4" stroke-dasharray="6 3"/>
  </g>

  <!-- Historical Fashion Element (Stylized Dress Silhouette) -->
  <g transform="translate(450, 200) scale(0.8)">
    <path d="M0,0 C50,-50 100,-50 150,0 L150,200 C100,220 50,220 0,200 Z" class="secondary-accent outline"/>
    <rect x="50" y="50" width="50" height="100" fill="#e0e0e0" class="outline"/>
    <!-- Subtle historical pattern overlay -->
    <path d="M50,50 L100,50 L100,150 L50,150 Z" class="pattern-element" fill-rule="evenodd">
      <defs>
        <pattern id="historicalPattern" patternUnits="userSpaceOnUse" width="10" height="10">
          <path d="M0,0 L10,10" stroke="#d0d0d0" stroke-width="1"/>
          <path d="M10,0 L0,10" stroke="#d0d0d0" stroke-width="1"/>
        </pattern>
      </defs>
      <use xlink:href="#historicalPattern" width="50" height="100" x="50" y="50"/>
    </pattern>
  </g>

  <!-- Bridging Element (Data Flow / Transformation) -->
  <g transform="translate(320, 280)">
    <path d="M0,0 C50,-30 100,-30 150,0 L150,50 C100,80 50,80 0,50 Z" class="primary-accent" opacity="0.7"/>
    <circle cx="75" cy="25" r="15" class="secondary-accent outline"/>
    <circle cx="120" cy="35" r="10" class="secondary-accent outline"/>
    <circle cx="30" cy="35" r="10" class="secondary-accent outline"/>
  </g>

  <!-- Text Labels (Conceptual) -->
  <text x="150" y="200" text-anchor="middle" class="text-color" font-family="Arial, sans-serif" font-size="24" font-weight="bold">AI Core</text>
  <text x="450" y="180" text-anchor="middle" class="text-color" font-family="Arial, sans-serif" font-size="24" font-weight="bold">Niche Fashion</text>
  <text x="450" y="205" text-anchor="middle" class="text-color" font-family="Arial, sans-serif" font-size="24" font-weight="bold">Recreation</text>
  <text x="320" y="250" text-anchor="middle" class="text-color" font-family="Arial, sans-serif" font-size="20">Analysis &amp; Generation</text>


</svg>